<svg width="24" height="15" viewBox="0 0 24 15" fill="none" xmlns="http://www.w3.org/2000/svg">
<path fill-rule="evenodd" clip-rule="evenodd" d="M23.1853 7.19625C23.1525 7.12219 22.3584 5.36062 20.5931 3.59531C18.2409 1.24312 15.27 0 12 0C8.73 0 5.75906 1.24312 3.40687 3.59531C1.64156 5.36062 0.84375 7.125 0.814687 7.19625C0.728449 7.39022 0.728449 7.61165 0.814687 7.80562C0.8475 7.87969 1.64156 9.64031 3.40687 11.4056C5.75906 13.7569 8.73 15 12 15C15.27 15 18.2409 13.7569 20.5931 11.4056C22.3584 9.64031 23.1525 7.87969 23.1853 7.80562C23.2716 7.61165 23.2716 7.39022 23.1853 7.19625ZM12 13.5C9.11438 13.5 6.59344 12.4509 4.50656 10.3828C3.65029 9.53128 2.9218 8.56027 2.34375 7.5C2.92165 6.43963 3.65015 5.4686 4.50656 4.61719C6.59344 2.54906 9.11438 1.5 12 1.5C14.8856 1.5 17.4066 2.54906 19.4934 4.61719C20.3514 5.4684 21.0815 6.43942 21.6609 7.5C20.985 8.76188 18.0403 13.5 12 13.5ZM12 3C9.51472 3 7.5 5.01472 7.5 7.5C7.5 9.98528 9.51472 12 12 12C14.4853 12 16.5 9.98528 16.5 7.5C16.4974 5.01579 14.4842 3.00258 12 3ZM12 10.5C10.3431 10.5 9 9.15685 9 7.5C9 5.84315 10.3431 4.5 12 4.5C13.6569 4.5 15 5.84315 15 7.5C15 9.15685 13.6569 10.5 12 10.5Z" fill="#637587"/>
</svg>
